<svg width="247" height="209" viewBox="0 0 247 209" fill="none" xmlns="http://www.w3.org/2000/svg">
<path d="M71.7818 157.616C59.5398 138.903 13.292 86.1676 3.09028 92.9722C-7.11143 104.54 9.55136 136.522 29.6147 168.503C49.6781 200.485 59.5398 209.331 71.7818 208.991C84.0239 208.65 95.2354 191.148 110.859 170.672C144.864 126.101 145.544 125.081 171.078 91.2709C198.219 55.3334 232.259 28.115 235.319 24.7127C238.38 21.3104 247.591 13.6985 242.49 8.25485C237.39 2.81116 228.888 8.25485 220.727 13.6985C212.565 19.1422 197.263 29.6894 176.519 46.7009C155.776 63.7124 114.629 103.86 71.7818 157.616Z" fill="#01BB06"/>
</svg>
