<svg width="588" height="202" viewBox="0 0 588 202" fill="none" xmlns="http://www.w3.org/2000/svg">
<path d="M87.4243 112.559C87.4243 109.054 85.593 106.242 81.9305 104.123C78.268 102.004 71.3093 99.8034 61.0543 97.5214C50.7992 95.2393 42.3348 92.2645 35.6609 88.5968C28.987 84.8477 23.9002 80.3243 20.4004 75.0267C16.9007 69.729 15.1508 63.657 15.1508 56.8108C15.1508 44.6669 20.1563 34.6829 30.1671 26.8586C40.178 18.9529 53.2816 15 69.478 15C86.8952 15 100.894 18.9529 111.475 26.8586C120.938 33.9296 126.169 42.9891 127.169 54.0371C127.368 56.2373 125.555 58.0334 123.346 58.0334H90.0814C87.8722 58.0334 86.1354 56.2265 85.7789 54.0463C84.4811 46.109 79.0068 42.1404 69.3559 42.1404C65.0423 42.1404 61.4205 43.3629 58.4905 45.808C55.5605 48.1716 54.0955 51.1464 54.0955 54.7325C54.0955 58.4001 55.8861 61.375 59.4672 63.657C63.0483 65.9391 68.7455 67.8137 76.5589 69.2807C84.4536 70.7478 91.3717 72.5001 97.3131 74.5376C117.172 81.3839 127.101 93.65 127.101 111.336C127.101 123.398 121.73 133.22 110.986 140.799C100.324 148.379 86.4883 152.169 69.478 152.169C58.1649 152.169 48.0727 150.131 39.2013 146.056C30.3299 141.981 23.4118 136.439 18.4471 129.43C14.3426 123.635 11.9348 117.59 11.2236 111.293C10.9756 109.098 12.7909 107.302 15 107.302H45.5614C47.7291 107.302 49.4518 109.042 49.8492 111.173C50.6274 115.346 52.5312 118.538 55.5605 120.75C59.4672 123.521 64.4726 124.906 70.5768 124.906C76.1926 124.906 80.3842 123.765 83.1514 121.483C86 119.201 87.4243 116.226 87.4243 112.559Z" fill="white"/>
<path fill-rule="evenodd" clip-rule="evenodd" d="M141.141 47.1528C146.269 36.802 153.634 28.8555 163.238 23.3133C172.842 17.7711 184.114 15 197.055 15C216.833 15 232.419 21.1535 243.813 33.4603C255.208 45.6857 260.905 62.353 260.905 83.4622V84.9292C260.905 105.549 255.167 121.931 243.691 134.075C232.297 146.138 216.833 152.169 197.299 152.169C178.499 152.169 163.401 146.545 152.006 135.298C140.612 123.969 134.467 108.646 133.572 89.3304L133.45 82.3619C133.45 69.1585 136.014 57.4221 141.141 47.1528ZM174.592 84.9292C174.592 97.1546 176.505 106.12 180.33 111.825C184.155 117.53 189.812 120.383 197.299 120.383C211.949 120.383 219.437 109.095 219.763 86.5185V82.3619C219.763 58.6446 212.194 46.786 197.055 46.786C183.301 46.786 175.853 57.0146 174.714 77.4717L174.592 84.9292Z" fill="white"/>
<path d="M268.567 55.8328C266.358 55.8328 264.559 57.6287 264.651 59.8359C266.745 109.834 307.885 149.724 358.328 149.724C408.771 149.724 449.91 109.834 452.004 59.8359C452.097 57.6287 450.297 55.8328 448.088 55.8328H420.928C418.719 55.8328 416.942 57.6294 416.794 59.8336C414.74 90.3768 389.349 114.515 358.328 114.515C327.306 114.515 301.915 90.3768 299.862 59.8336C299.713 57.6294 297.937 55.8328 295.728 55.8328H268.567Z" fill="white"/>
<path fill-rule="evenodd" clip-rule="evenodd" d="M456.361 20.7116C456.361 18.5024 458.152 16.7116 460.361 16.7116H495.421C495.424 16.7116 495.427 16.7147 495.427 16.7185V16.7185C495.427 16.7223 495.43 16.7255 495.434 16.7255C501.486 16.7162 512.446 16.7116 512.899 16.7116C548.559 16.7116 577.468 45.6116 577.468 81.2616C577.468 116.912 548.559 145.812 512.899 145.812C512.649 145.812 506.002 145.81 499.43 145.807C497.22 145.806 495.427 147.598 495.427 149.808V192.669C495.427 194.878 493.637 196.669 491.427 196.669H460.361C458.152 196.669 456.361 194.878 456.361 192.669V20.7116ZM499.412 108.905C497.209 108.899 495.427 107.111 495.427 104.908V57.6157C495.427 55.4121 497.209 53.6237 499.412 53.6185C505.354 53.6044 512.533 53.5973 512.899 53.5973C528.182 53.5973 540.571 65.983 540.571 81.2616C540.571 96.5402 528.182 108.926 512.899 108.926C512.533 108.926 505.354 108.919 499.412 108.905Z" fill="white"/>
<path fill-rule="evenodd" clip-rule="evenodd" d="M379.196 20.1682C380.215 22.2931 380.852 24.7829 380.852 27.9328C380.852 29.7413 380.483 31.2251 379.866 32.5115C379.303 33.6854 378.57 34.6023 378.061 35.2387C378.042 35.2626 378.023 35.2861 378.005 35.3092C377.443 36.0122 377.139 36.4122 376.919 36.871C376.732 37.2612 376.566 37.7894 376.566 38.6636C376.566 39.5378 376.732 40.066 376.919 40.4563C377.139 40.9151 377.443 41.315 378.005 42.018C378.023 42.0411 378.042 42.0646 378.061 42.0885C378.57 42.7249 379.303 43.6419 379.866 44.8157C380.483 46.1021 380.852 47.5859 380.852 49.3945C380.852 52.5443 380.215 55.0341 379.196 57.159C378.233 59.1692 376.965 60.7549 375.932 62.0481V62.0481C375.893 62.0968 375.822 62.1047 375.773 62.0657L373.348 60.1227C371.963 59.013 371.807 57.0369 372.754 55.5357C372.991 55.1594 373.206 54.7771 373.4 54.3728C373.989 53.1443 374.423 51.61 374.423 49.3945C374.423 48.5203 374.257 47.992 374.07 47.6018C373.85 47.143 373.546 46.743 372.984 46.0401C372.966 46.017 372.947 45.9935 372.928 45.9696C372.419 45.3331 371.685 44.4162 371.123 43.2424C370.506 41.9559 370.136 40.4721 370.136 38.6636C370.136 36.8551 370.506 35.3713 371.123 34.0848C371.685 32.911 372.419 31.9941 372.928 31.3576C372.947 31.3337 372.966 31.3102 372.984 31.2871C373.546 30.5842 373.85 30.1842 374.07 29.7254C374.257 29.3352 374.423 28.8069 374.423 27.9328C374.423 25.7172 373.989 24.1829 373.4 22.9544C373.206 22.5501 372.991 22.1677 372.754 21.7914C371.807 20.2903 371.963 18.3143 373.348 17.2046L375.773 15.2615C375.822 15.2225 375.893 15.2304 375.932 15.2791V15.2791C376.965 16.5723 378.233 18.158 379.196 20.1682Z" fill="white"/>
<path fill-rule="evenodd" clip-rule="evenodd" d="M362.055 20.1682C363.073 22.2931 363.711 24.7829 363.711 27.9328C363.711 29.7413 363.341 31.2251 362.724 32.5115C362.162 33.6854 361.428 34.6023 360.919 35.2387C360.9 35.2626 360.881 35.2861 360.863 35.3092C360.301 36.0122 359.997 36.4122 359.777 36.871C359.59 37.2612 359.424 37.7894 359.424 38.6636C359.424 39.5378 359.59 40.066 359.777 40.4563C359.997 40.9151 360.301 41.315 360.863 42.018C360.881 42.0411 360.9 42.0646 360.919 42.0885C361.428 42.7249 362.162 43.6419 362.724 44.8157C363.341 46.1021 363.711 47.5859 363.711 49.3945C363.711 52.5443 363.073 55.0341 362.055 57.159C361.091 59.1692 359.824 60.7549 358.79 62.0481V62.0481C358.751 62.0968 358.68 62.1047 358.632 62.0657L356.206 60.1227C354.821 59.013 354.665 57.0369 355.612 55.5357C355.849 55.1594 356.064 54.7771 356.258 54.3728C356.847 53.1443 357.281 51.61 357.281 49.3945C357.281 48.5203 357.115 47.992 356.928 47.6018C356.708 47.143 356.404 46.743 355.842 46.0401C355.824 46.017 355.805 45.9935 355.786 45.9696C355.277 45.3331 354.544 44.4162 353.981 43.2424C353.364 41.9559 352.995 40.4721 352.995 38.6636C352.995 36.8551 353.364 35.3713 353.981 34.0848C354.544 32.911 355.277 31.9941 355.786 31.3576C355.805 31.3337 355.824 31.3102 355.842 31.2871C356.404 30.5842 356.708 30.1842 356.928 29.7254C357.115 29.3352 357.281 28.8069 357.281 27.9328C357.281 25.7172 356.847 24.1829 356.258 22.9544C356.064 22.5501 355.849 22.1677 355.612 21.7914C354.665 20.2903 354.821 18.3143 356.206 17.2046L358.632 15.2615C358.68 15.2225 358.751 15.2304 358.79 15.2791V15.2791C359.824 16.5723 361.091 18.158 362.055 20.1682Z" fill="white"/>
<path fill-rule="evenodd" clip-rule="evenodd" d="M344.908 20.1682C345.926 22.2931 346.564 24.7829 346.564 27.9328C346.564 29.7413 346.194 31.2251 345.577 32.5115C345.015 33.6854 344.282 34.6023 343.773 35.2387C343.753 35.2626 343.735 35.2861 343.716 35.3092C343.155 36.0122 342.851 36.4122 342.631 36.871C342.444 37.2612 342.277 37.7894 342.277 38.6636C342.277 39.5378 342.444 40.066 342.631 40.4563C342.851 40.9151 343.155 41.315 343.716 42.018C343.735 42.0411 343.753 42.0646 343.773 42.0885C344.281 42.7249 345.015 43.6419 345.577 44.8157C346.194 46.1021 346.564 47.5859 346.564 49.3945C346.564 52.5443 345.926 55.0341 344.908 57.159C343.944 59.1692 342.677 60.7549 341.644 62.0481V62.0481C341.605 62.0968 341.533 62.1047 341.485 62.0657L339.059 60.1227C337.674 59.013 337.518 57.0369 338.465 55.5357C338.703 55.1594 338.918 54.7771 339.111 54.3728C339.7 53.1443 340.134 51.61 340.134 49.3945C340.134 48.5203 339.968 47.992 339.781 47.6018C339.561 47.143 339.257 46.743 338.696 46.0401C338.677 46.017 338.658 45.9935 338.639 45.9696C338.13 45.3331 337.397 44.4162 336.834 43.2424C336.218 41.9559 335.848 40.4721 335.848 38.6636C335.848 36.8551 336.218 35.3713 336.834 34.0848C337.397 32.911 338.13 31.9941 338.639 31.3576C338.658 31.3337 338.677 31.3102 338.696 31.2871C339.257 30.5842 339.561 30.1842 339.781 29.7254C339.968 29.3352 340.134 28.8069 340.134 27.9328C340.134 25.7172 339.7 24.1829 339.111 22.9544C338.918 22.5501 338.703 22.1677 338.465 21.7914C337.518 20.2903 337.674 18.3143 339.059 17.2046L341.485 15.2615C341.533 15.2225 341.605 15.2304 341.644 15.2791V15.2791C342.677 16.5723 343.944 18.158 344.908 20.1682Z" fill="white"/>
</svg>
