<svg width="342" height="111" viewBox="0 0 342 111" fill="none" xmlns="http://www.w3.org/2000/svg">
<path d="M46.1405 60.2239C46.1405 58.1083 45.0349 56.4108 42.8237 55.1315C40.6125 53.8523 36.4112 52.5238 30.2198 51.1462C24.0284 49.7685 18.9181 47.9726 14.8888 45.7585C10.8595 43.4952 7.78837 40.7645 5.67543 37.5664C3.56249 34.3682 2.50603 30.7027 2.50603 26.5697C2.50603 19.2386 5.52802 13.2114 11.572 8.488C17.6159 3.71541 25.5271 1.3291 35.3056 1.3291C45.8211 1.3291 54.2729 3.71541 60.6608 8.488C65.9184 12.4161 69.0124 17.3609 69.9427 23.3223C70.2833 25.505 68.4518 27.3078 66.2427 27.3078H49.3297C47.1206 27.3078 45.4545 25.464 44.7822 23.3596C43.5796 19.5955 40.3962 17.7134 35.2319 17.7134C32.6276 17.7134 30.4409 18.4514 28.672 19.9275C26.903 21.3543 26.0185 23.1502 26.0185 25.3151C26.0185 27.5292 27.0996 29.3251 29.2616 30.7027C31.4237 32.0804 34.8634 33.212 39.5806 34.0977C44.347 34.9833 48.5237 36.0411 52.1108 37.2712C64.1004 41.4042 70.0953 48.8091 70.0953 59.4859C70.0953 66.7678 66.8522 72.6966 60.366 77.2724C53.9289 81.8482 45.5754 84.1361 35.3056 84.1361C28.4754 84.1361 22.3823 82.9061 17.0263 80.446C11.6703 77.9858 7.49354 74.6401 4.49612 70.4087C2.36051 67.394 0.985702 64.2668 0.371679 61.0272C-0.0397148 58.8567 1.79086 57.0504 4 57.0504H19.3228C21.4904 57.0504 23.1548 58.8245 23.8362 60.8823C24.4322 62.6823 25.4544 64.1111 26.903 65.1687C29.2616 66.8416 32.2836 67.678 35.969 67.678C39.3595 67.678 41.8901 66.9892 43.5608 65.6115C45.2806 64.2339 46.1405 62.438 46.1405 60.2239Z" fill="#E05A33"/>
<path fill-rule="evenodd" clip-rule="evenodd" d="M78.5716 20.7393C81.6672 14.4907 86.1142 9.69346 91.9125 6.34771C97.7108 3.00196 104.516 1.3291 112.329 1.3291C124.27 1.3291 133.68 5.04387 140.559 12.4734C147.438 19.8537 150.878 29.9155 150.878 42.6588V43.5444C150.878 55.9925 147.414 65.8821 140.485 73.2133C133.606 80.4952 124.27 84.1361 112.477 84.1361C101.126 84.1361 92.0108 80.7412 85.1315 73.9513C78.2521 67.1122 74.5423 57.8622 74.0017 46.2013L73.928 41.9946C73.928 34.0238 75.4759 26.9388 78.5716 20.7393ZM98.7672 43.5444C98.7672 50.9247 99.922 56.337 102.231 59.7811C104.541 63.2252 107.956 64.9473 112.477 64.9473C121.322 64.9473 125.842 58.1328 126.039 44.5039V41.9946C126.039 27.6768 121.469 20.5179 112.329 20.5179C104.025 20.5179 99.5289 26.6927 98.841 39.0425L98.7672 43.5444Z" fill="#E05A33"/>
<path d="M157.089 25.9793C154.88 25.9793 153.075 27.7762 153.228 29.98C155.278 59.4171 179.776 82.6601 209.696 82.6601C239.616 82.6601 264.114 59.4171 266.164 29.98C266.318 27.7762 264.512 25.9793 262.303 25.9793H249.075C246.866 25.9793 245.099 27.7774 244.853 29.9728C242.872 47.6577 227.887 61.4048 209.696 61.4048C191.505 61.4048 176.521 47.6577 174.539 29.9728C174.293 27.7774 172.526 25.9793 170.317 25.9793H157.089Z" fill="#E05A33"/>
<path fill-rule="evenodd" clip-rule="evenodd" d="M268.883 6.36234C268.883 4.15321 270.674 2.36234 272.883 2.36234H292.465C292.467 2.36234 292.469 2.36422 292.469 2.36654V2.36654C292.469 2.36886 292.471 2.37074 292.473 2.37073C296.127 2.36515 302.744 2.36234 303.017 2.36234C324.547 2.36234 342 19.8089 342 41.3303C342 62.8518 324.547 80.2984 303.017 80.2984C302.887 80.2984 299.858 80.2977 296.471 80.2964C294.261 80.2956 292.469 82.0868 292.469 84.2968V107C292.469 109.21 290.678 111 288.469 111H272.883C270.674 111 268.883 109.21 268.883 107V6.36234ZM296.455 58.0215C294.251 58.0172 292.469 56.2291 292.469 54.0255V28.6352C292.469 26.4316 294.251 24.6435 296.455 24.6392C299.624 24.6329 302.828 24.6298 303.017 24.6298C312.244 24.6298 319.724 32.1068 319.724 41.3303C319.724 50.5539 312.244 58.0309 303.017 58.0309C302.828 58.0309 299.624 58.0278 296.455 58.0215Z" fill="#E05A33"/>
<path fill-rule="evenodd" clip-rule="evenodd" d="M221.936 3.00478C222.551 4.28751 222.936 5.79057 222.936 7.69212C222.936 8.7839 222.713 9.67964 222.341 10.4563C222.001 11.1649 221.558 11.7184 221.251 12.1026C221.24 12.1171 221.228 12.1312 221.217 12.1452C220.878 12.5695 220.694 12.811 220.562 13.088C220.449 13.3236 220.348 13.6425 220.348 14.1702C220.348 14.6979 220.449 15.0168 220.562 15.2524C220.694 15.5294 220.878 15.7708 221.217 16.1952C221.228 16.2091 221.24 16.2233 221.251 16.2377C221.558 16.6219 222.001 17.1755 222.341 17.8841C222.713 18.6607 222.936 19.5565 222.936 20.6483C222.936 22.5498 222.551 24.0529 221.936 25.3356C221.355 26.5492 220.59 27.5064 219.966 28.2871V28.2871C219.942 28.3165 219.899 28.3213 219.87 28.2977L218.406 27.1248C217.569 26.4549 217.475 25.2618 218.047 24.3555C218.19 24.1283 218.32 23.8976 218.437 23.6536C218.792 22.912 219.055 21.9857 219.055 20.6483C219.055 20.1205 218.954 19.8016 218.841 19.5661C218.709 19.2891 218.525 19.0476 218.186 18.6233C218.175 18.6093 218.163 18.5951 218.152 18.5807C217.845 18.1965 217.402 17.643 217.062 16.9343C216.69 16.1577 216.467 15.262 216.467 14.1702C216.467 13.0784 216.69 12.1827 217.062 11.406C217.402 10.6974 217.845 10.1439 218.152 9.75967C218.163 9.74525 218.175 9.73106 218.186 9.71711C218.525 9.29275 218.709 9.05128 218.841 8.77431C218.954 8.53875 219.055 8.21985 219.055 7.69212C219.055 6.35462 218.792 5.42841 218.437 4.68674C218.32 4.44271 218.19 4.21196 218.047 3.98482C217.475 3.07854 217.569 1.88549 218.406 1.21559L219.87 0.042653C219.899 0.0191052 219.942 0.0238738 219.966 0.0532964V0.0532964C220.59 0.833947 221.355 1.79121 221.936 3.00478Z" fill="#E05A33"/>
<path fill-rule="evenodd" clip-rule="evenodd" d="M211.587 3.00478C212.202 4.28751 212.587 5.79057 212.587 7.69212C212.587 8.7839 212.364 9.67964 211.992 10.4563C211.652 11.1649 211.209 11.7184 210.902 12.1026C210.89 12.1171 210.879 12.1312 210.868 12.1452C210.529 12.5695 210.345 12.811 210.213 13.088C210.1 13.3236 209.999 13.6425 209.999 14.1702C209.999 14.6979 210.1 15.0168 210.213 15.2524C210.345 15.5294 210.529 15.7708 210.868 16.1952C210.879 16.2091 210.89 16.2233 210.902 16.2377C211.209 16.6219 211.652 17.1755 211.992 17.8841C212.364 18.6607 212.587 19.5565 212.587 20.6483C212.587 22.5498 212.202 24.0529 211.587 25.3356C211.006 26.5492 210.241 27.5064 209.617 28.2871V28.2871C209.593 28.3165 209.55 28.3213 209.521 28.2977L208.057 27.1248C207.22 26.4549 207.126 25.2618 207.698 24.3555C207.841 24.1284 207.971 23.8976 208.088 23.6536C208.443 22.912 208.705 21.9857 208.705 20.6483C208.705 20.1205 208.605 19.8016 208.492 19.5661C208.359 19.2891 208.176 19.0476 207.837 18.6233C207.826 18.6093 207.814 18.5951 207.803 18.5807C207.495 18.1965 207.053 17.643 206.713 16.9343C206.341 16.1577 206.118 15.262 206.118 14.1702C206.118 13.0784 206.341 12.1827 206.713 11.406C207.053 10.6974 207.495 10.1439 207.803 9.75967C207.814 9.74525 207.826 9.73106 207.837 9.71711C208.176 9.29275 208.359 9.05128 208.492 8.77431C208.605 8.53875 208.705 8.21985 208.705 7.69212C208.705 6.35462 208.443 5.42841 208.088 4.68674C207.971 4.44271 207.841 4.21196 207.698 3.98481C207.126 3.07854 207.22 1.88549 208.057 1.2156L209.521 0.042653C209.55 0.0191052 209.593 0.0238739 209.617 0.0532964V0.0532964C210.241 0.833947 211.006 1.79121 211.587 3.00478Z" fill="#E05A33"/>
<path fill-rule="evenodd" clip-rule="evenodd" d="M201.235 3.00478C201.85 4.28751 202.235 5.79057 202.235 7.69212C202.235 8.7839 202.012 9.67964 201.639 10.4563C201.3 11.1649 200.857 11.7184 200.55 12.1026C200.538 12.1171 200.527 12.1312 200.516 12.1452C200.177 12.5695 199.993 12.811 199.86 13.088C199.747 13.3236 199.647 13.6425 199.647 14.1702C199.647 14.6979 199.747 15.0168 199.86 15.2524C199.993 15.5294 200.177 15.7708 200.516 16.1952C200.527 16.2091 200.538 16.2233 200.55 16.2377C200.857 16.6219 201.3 17.1755 201.639 17.8841C202.012 18.6607 202.235 19.5565 202.235 20.6483C202.235 22.5498 201.85 24.0529 201.235 25.3356C200.653 26.5492 199.888 27.5064 199.264 28.2871V28.2871C199.241 28.3165 199.198 28.3213 199.169 28.2977L197.704 27.1248C196.868 26.4549 196.774 25.2618 197.346 24.3555C197.489 24.1283 197.619 23.8976 197.736 23.6536C198.091 22.912 198.353 21.9857 198.353 20.6483C198.353 20.1205 198.253 19.8016 198.14 19.5661C198.007 19.2891 197.824 19.0476 197.485 18.6233C197.473 18.6093 197.462 18.5951 197.451 18.5807C197.143 18.1965 196.7 17.643 196.361 16.9343C195.989 16.1577 195.765 15.262 195.765 14.1702C195.765 13.0784 195.989 12.1827 196.361 11.406C196.7 10.6974 197.143 10.1439 197.451 9.75967C197.462 9.74525 197.473 9.73106 197.485 9.71711C197.824 9.29275 198.007 9.05128 198.14 8.77431C198.253 8.53875 198.353 8.21985 198.353 7.69212C198.353 6.35462 198.091 5.42841 197.736 4.68674C197.619 4.44271 197.489 4.21196 197.346 3.98482C196.774 3.07854 196.868 1.88549 197.704 1.21559L199.169 0.042653C199.198 0.0191052 199.241 0.0238738 199.264 0.0532964V0.0532964C199.888 0.833947 200.653 1.79121 201.235 3.00478Z" fill="#E05A33"/>
</svg>
