<svg width="25" height="25" viewBox="0 0 25 25" fill="none" xmlns="http://www.w3.org/2000/svg">
<mask id="path-1-inside-1" fill="white">
<path fill-rule="evenodd" clip-rule="evenodd" d="M12.5 24C16.1687 24 19.4362 22.2821 21.5419 19.6068C20.2478 17.1393 18.1351 15.2206 16.0049 14.204C15.0161 14.9082 13.8064 15.3224 12.5 15.3224C11.2385 15.3224 10.0672 14.9363 9.09793 14.2757C6.85919 15.3424 4.95596 17.3322 3.70219 19.9064C5.81172 22.4096 8.97014 24 12.5 24ZM8.25385 13.5814C6.09647 14.7281 4.28535 16.6416 3.02847 19.0242C1.74917 17.1704 1 14.9227 1 12.5C1 6.14873 6.14873 1 12.5 1C18.8513 1 24 6.14873 24 12.5C24 14.7842 23.3341 16.9128 22.1857 18.7023C20.8611 16.3976 18.8812 14.577 16.8286 13.4985C17.8927 12.4084 18.5484 10.9178 18.5484 9.27406C18.5484 5.93363 15.8404 3.22567 12.5 3.22567C9.15955 3.22567 6.45159 5.93363 6.45159 9.27406C6.45159 10.9598 7.14127 12.4846 8.25385 13.5814ZM12.5 25C19.4036 25 25 19.4036 25 12.5C25 5.59644 19.4036 0 12.5 0C5.59644 0 0 5.59644 0 12.5C0 19.4036 5.59644 25 12.5 25ZM17.5484 9.27406C17.5484 12.0622 15.2881 14.3224 12.5 14.3224C9.71183 14.3224 7.45159 12.0622 7.45159 9.27406C7.45159 6.48591 9.71183 4.22567 12.5 4.22567C15.2881 4.22567 17.5484 6.48591 17.5484 9.27406Z"/>
</mask>
<path fill-rule="evenodd" clip-rule="evenodd" d="M12.5 24C16.1687 24 19.4362 22.2821 21.5419 19.6068C20.2478 17.1393 18.1351 15.2206 16.0049 14.204C15.0161 14.9082 13.8064 15.3224 12.5 15.3224C11.2385 15.3224 10.0672 14.9363 9.09793 14.2757C6.85919 15.3424 4.95596 17.3322 3.70219 19.9064C5.81172 22.4096 8.97014 24 12.5 24ZM8.25385 13.5814C6.09647 14.7281 4.28535 16.6416 3.02847 19.0242C1.74917 17.1704 1 14.9227 1 12.5C1 6.14873 6.14873 1 12.5 1C18.8513 1 24 6.14873 24 12.5C24 14.7842 23.3341 16.9128 22.1857 18.7023C20.8611 16.3976 18.8812 14.577 16.8286 13.4985C17.8927 12.4084 18.5484 10.9178 18.5484 9.27406C18.5484 5.93363 15.8404 3.22567 12.5 3.22567C9.15955 3.22567 6.45159 5.93363 6.45159 9.27406C6.45159 10.9598 7.14127 12.4846 8.25385 13.5814ZM12.5 25C19.4036 25 25 19.4036 25 12.5C25 5.59644 19.4036 0 12.5 0C5.59644 0 0 5.59644 0 12.5C0 19.4036 5.59644 25 12.5 25ZM17.5484 9.27406C17.5484 12.0622 15.2881 14.3224 12.5 14.3224C9.71183 14.3224 7.45159 12.0622 7.45159 9.27406C7.45159 6.48591 9.71183 4.22567 12.5 4.22567C15.2881 4.22567 17.5484 6.48591 17.5484 9.27406Z" fill="black"/>
<path d="M21.5419 19.6068L22.3277 20.2252L22.7284 19.7161L22.4275 19.1423L21.5419 19.6068ZM16.0049 14.204L16.4356 13.3015L15.9043 13.048L15.4248 13.3895L16.0049 14.204ZM9.09793 14.2757L9.66109 13.4493L9.18638 13.1258L8.66777 13.3729L9.09793 14.2757ZM3.70219 19.9064L2.80316 19.4685L2.5183 20.0533L2.93751 20.5508L3.70219 19.9064ZM8.25385 13.5814L8.72318 14.4644L9.92564 13.8253L8.95591 12.8693L8.25385 13.5814ZM3.02847 19.0242L2.20544 19.5921L3.14288 20.9505L3.91295 19.4907L3.02847 19.0242ZM22.1857 18.7023L21.3187 19.2006L22.1387 20.6273L23.0274 19.2424L22.1857 18.7023ZM16.8286 13.4985L16.113 12.8L15.1761 13.7599L16.3635 14.3838L16.8286 13.4985ZM20.7561 18.9883C18.8318 21.4331 15.8492 23 12.5 23V25C16.4882 25 20.0405 23.1311 22.3277 20.2252L20.7561 18.9883ZM15.5742 15.1065C17.5133 16.0319 19.4645 17.7988 20.6562 20.0712L22.4275 19.1423C21.0311 16.4798 18.7569 14.4093 16.4356 13.3015L15.5742 15.1065ZM12.5 16.3224C14.0211 16.3224 15.4324 15.8394 16.585 15.0185L15.4248 13.3895C14.5998 13.9771 13.5917 14.3224 12.5 14.3224V16.3224ZM8.53477 15.102C9.66481 15.8722 11.0313 16.3224 12.5 16.3224V14.3224C11.4457 14.3224 10.4696 14.0004 9.66109 13.4493L8.53477 15.102ZM4.60122 20.3443C5.7724 17.9397 7.52548 16.1327 9.52809 15.1784L8.66777 13.3729C6.1929 14.5522 4.13951 16.7248 2.80316 19.4685L4.60122 20.3443ZM12.5 23C9.27737 23 6.39453 21.5494 4.46687 19.262L2.93751 20.5508C5.22892 23.2699 8.6629 25 12.5 25V23ZM7.78452 12.6984C5.42556 13.9522 3.4805 16.0241 2.144 18.5576L3.91295 19.4907C5.0902 17.2591 6.76738 15.504 8.72318 14.4644L7.78452 12.6984ZM3.8515 18.4562C2.68375 16.7641 2 14.7134 2 12.5H0C0 15.132 0.814587 17.5768 2.20544 19.5921L3.8515 18.4562ZM2 12.5C2 6.70101 6.70101 2 12.5 2V0C5.59644 0 0 5.59644 0 12.5H2ZM12.5 2C18.299 2 23 6.70101 23 12.5H25C25 5.59644 19.4036 0 12.5 0V2ZM23 12.5C23 14.587 22.3921 16.5291 21.3441 18.1623L23.0274 19.2424C24.276 17.2965 25 14.9813 25 12.5H23ZM23.0527 18.204C21.6316 15.7314 19.5108 13.7781 17.2937 12.6133L16.3635 14.3838C18.2516 15.3758 20.0905 17.0637 21.3187 19.2006L23.0527 18.204ZM17.5442 14.197C18.7832 12.9276 19.5484 11.1892 19.5484 9.27406H17.5484C17.5484 10.6464 17.0021 11.8891 16.113 12.8L17.5442 14.197ZM19.5484 9.27406C19.5484 5.38134 16.3927 2.22567 12.5 2.22567V4.22567C15.2881 4.22567 17.5484 6.48591 17.5484 9.27406H19.5484ZM12.5 2.22567C8.60726 2.22567 5.45159 5.38134 5.45159 9.27406H7.45159C7.45159 6.48591 9.71183 4.22567 12.5 4.22567V2.22567ZM5.45159 9.27406C5.45159 11.2383 6.25642 13.0165 7.5518 14.2935L8.95591 12.8693C8.02611 11.9526 7.45159 10.6814 7.45159 9.27406H5.45159ZM24 12.5C24 18.8513 18.8513 24 12.5 24V26C19.9558 26 26 19.9558 26 12.5H24ZM12.5 1C18.8513 1 24 6.14873 24 12.5H26C26 5.04416 19.9558 -1 12.5 -1V1ZM1 12.5C1 6.14873 6.14873 1 12.5 1V-1C5.04416 -1 -1 5.04416 -1 12.5H1ZM12.5 24C6.14873 24 1 18.8513 1 12.5H-1C-1 19.9558 5.04416 26 12.5 26V24ZM12.5 15.3224C15.8404 15.3224 18.5484 12.6145 18.5484 9.27406H16.5484C16.5484 11.5099 14.7358 13.3224 12.5 13.3224V15.3224ZM6.45159 9.27406C6.45159 12.6145 9.15954 15.3224 12.5 15.3224V13.3224C10.2641 13.3224 8.45159 11.5099 8.45159 9.27406H6.45159ZM12.5 3.22567C9.15954 3.22567 6.45159 5.93363 6.45159 9.27406H8.45159C8.45159 7.0382 10.2641 5.22567 12.5 5.22567V3.22567ZM18.5484 9.27406C18.5484 5.93363 15.8404 3.22567 12.5 3.22567V5.22567C14.7358 5.22567 16.5484 7.0382 16.5484 9.27406H18.5484Z" fill="black" mask="url(#path-1-inside-1)"/>
</svg>
